<svg viewBox="0 0 14 31" fill="none" xmlns="http://www.w3.org/2000/svg">
<path d="M10.6481 0C12.6581 0 13.6631 1.37677 13.6631 2.95432C13.6631 4.92437 11.9171 6.74647 9.6446 6.74647C7.7411 6.74647 6.6311 5.61426 6.6836 3.74234C6.6836 2.16781 8.0051 0 10.6481 0ZM4.4636 30.1923C2.8766 30.1923 1.7141 29.208 2.8241 24.8724L4.6451 17.1855C4.9616 15.9566 5.0141 15.463 4.6451 15.463C4.1696 15.463 2.1116 16.3114 0.892097 17.1492L0.100098 15.8208C3.9581 12.5207 8.3966 10.5869 10.3016 10.5869C11.8871 10.5869 12.1511 12.5087 11.3591 15.463L9.2726 23.5425C8.9036 24.969 9.0611 25.4612 9.4316 25.4612C9.9071 25.4612 11.4671 24.8694 13.0001 23.6391L13.9001 24.8679C10.1471 28.7129 6.0476 30.1923 4.4636 30.1923Z" fill="currentColor"/>
</svg>
