<svg viewBox="0 0 36 32" fill="none" xmlns="http://www.w3.org/2000/svg">
<path d="M27.9372 8.70365C31.6547 5.77076 35.6882 1.53639 35.0377 0.748174C34.3871 -0.0400418 29.3127 2.89285 25.5952 5.84408C25.2606 6.11904 24.926 6.37567 24.61 6.6323C23.9595 6.52231 22.6026 6.30235 20.8739 6.02739C20.8925 6.02739 20.9297 6.02739 20.9483 6.02739L21.952 5.23917C22.0821 5.14752 22.0821 4.94588 21.952 4.81757L21.1713 3.86438C21.0598 3.71773 20.8739 3.68107 20.7438 3.79105L19.7401 4.57927C19.7401 4.57927 19.6657 4.68925 19.6471 4.76257L18.4761 5.6791C17.0077 5.44081 15.4091 5.18418 13.8292 4.92755L14.8143 4.15766C14.9444 4.06601 14.9444 3.86438 14.8143 3.73606L14.0337 2.78287C13.9221 2.63622 13.7363 2.59956 13.6061 2.70955L12.6024 3.49777C12.6024 3.49777 12.5281 3.60775 12.5095 3.68107L11.3756 4.56094C7.3607 3.91937 3.99634 3.40611 3.88481 3.44277C3.606 3.53443 2.17475 4.74424 2.17475 4.74424C1.82158 5.0192 1.57995 5.27583 1.59854 5.31249C1.63571 5.34916 2.04464 5.0742 2.37921 4.81757L9.75851 7.4755C9.49828 7.7138 9.34957 7.93377 9.40534 8.00709C9.47969 8.09875 9.81427 7.93377 10.1488 7.65881L10.186 7.62215L11.6359 8.15374C11.3942 8.3737 11.2455 8.59367 11.3013 8.667C11.3756 8.75865 11.7102 8.59367 12.0448 8.31871L13.3645 8.77698L14.1638 9.34523C13.8664 9.60185 13.6619 9.85848 13.7177 9.9318C13.792 10.0235 14.1266 9.85848 14.4612 9.58353H14.4798L16.0597 10.6834C15.7623 10.94 15.5578 11.1966 15.6322 11.2699C15.7065 11.3616 16.0411 11.1966 16.3757 10.9217L17.8255 11.9482C15.3534 13.9462 14.3868 14.7528 12.5466 16.2192C10.6879 17.6856 8.99641 19.2254 7.63952 20.6002C5.44618 20.2703 1.11525 19.5554 1.11525 19.5554L0 20.2886L4.70267 23.8814C4.44244 24.2297 4.23797 24.5046 4.12645 24.7246C3.40153 25.3845 2.97402 25.8244 3.02978 25.8978C3.08554 25.9711 3.606 25.6778 4.38668 25.1279C4.62832 25.0546 4.96289 24.8896 5.39041 24.6879L7.93692 30.0588L8.92206 29.1606C8.92206 29.1606 9.18229 24.5413 9.33099 22.4333C10.9295 21.4434 12.7511 20.2703 14.647 18.9688C16.9519 17.1541 17.9928 16.3842 20.1304 14.7344L20.8181 16.3475C20.465 16.6408 20.2419 16.9158 20.3163 17.0074C20.372 17.0807 20.6694 16.9524 21.004 16.7141L21.7661 18.4922H21.7475C21.3944 18.7855 21.1713 19.0788 21.2457 19.1521C21.3014 19.2254 21.6174 19.0971 21.9334 18.8588L22.3237 19.7387L22.5096 21.1135C22.1565 21.3884 21.9334 21.6817 22.0077 21.7734C22.0635 21.8467 22.3052 21.755 22.584 21.5534L22.7884 23.0748H22.7513C22.3981 23.3681 22.175 23.6614 22.2494 23.7531C22.3052 23.8264 22.5654 23.7164 22.8442 23.5148L23.8479 31.1953C23.5319 31.4703 23.1602 31.8002 23.1788 31.8369C23.216 31.8735 23.5133 31.6902 23.8665 31.4153C23.8665 31.4153 25.3907 30.2971 25.5208 30.0588C25.5766 29.9672 25.7996 26.6127 26.0599 22.6166L27.1937 21.7367C27.1937 21.7367 27.3424 21.7367 27.3982 21.7001L28.4019 20.9118C28.532 20.8202 28.532 20.6185 28.4019 20.4902L27.6212 19.537C27.5097 19.3904 27.3238 19.3537 27.1937 19.4637L26.2086 20.2336C26.3015 18.6572 26.3944 17.0807 26.4874 15.596L27.6584 14.6794C27.6584 14.6794 27.8071 14.6794 27.8629 14.6428L28.8666 13.8546C28.9967 13.7629 28.9967 13.5613 28.8666 13.433L28.0859 12.4798C27.9744 12.3331 27.7885 12.2965 27.6584 12.4064L26.6547 13.1947C26.6547 13.1947 26.6547 13.2313 26.6175 13.268C26.729 11.5632 26.8034 10.2251 26.8405 9.56519C27.1565 9.30857 27.4911 9.05194 27.8443 8.77698L27.9372 8.70365Z" fill="white"/>
</svg>
