<svg viewBox="0 0 223 434" fill="none" xmlns="http://www.w3.org/2000/svg">
<path d="M57.3092 40.6217C54.7651 38.6457 52.1885 36.6696 49.5792 34.7302C48.8616 34.1813 48.6333 33.0835 49.1225 32.2784C49.6118 31.4734 50.5903 31.2172 51.3078 31.7661C53.9497 33.7056 56.559 35.6816 59.103 37.6942C59.8206 38.2431 60.0164 39.3775 59.4945 40.1826C59.201 40.6949 58.679 40.951 58.1898 40.951C57.8636 40.951 57.5701 40.8413 57.2765 40.6217H57.3092ZM43.4147 26.021C40.7728 24.1547 38.0983 22.2884 35.3912 20.4588C34.641 19.9465 33.6626 20.2026 33.206 21.0809C32.7493 21.9225 33.0102 23.0203 33.7604 23.5326C36.4349 25.3623 39.1094 27.192 41.7187 29.0582C41.9796 29.2412 42.2732 29.351 42.5668 29.351C43.0886 29.351 43.6105 29.0582 43.904 28.5093C44.3607 27.6677 44.1649 26.5699 43.4147 26.0576V26.021ZM102.319 80.2523C102.743 80.2523 103.167 80.0693 103.494 79.6668C104.081 78.9349 104.048 77.8005 103.396 77.1418C101.08 74.7999 98.7316 72.4579 96.3507 70.1159C95.6983 69.4572 94.6872 69.567 94.1001 70.2989C93.513 71.0308 93.6109 72.1652 94.2632 72.8238C96.6441 75.1292 98.9599 77.4712 101.243 79.8132C101.537 80.1425 101.928 80.2889 102.319 80.2889V80.2523ZM90.1536 402.713C87.577 400.883 84.9677 398.98 82.3258 397.004C81.6082 396.455 80.6297 396.675 80.1078 397.48C79.6186 398.285 79.8143 399.383 80.5318 399.968C83.2064 401.981 85.8483 403.92 88.425 405.75C88.6859 405.933 88.9794 406.006 89.2729 406.006C89.7948 406.006 90.3167 405.713 90.6102 405.164C91.0668 404.323 90.8385 403.225 90.121 402.713H90.1536ZM27.2698 15.1527C24.5627 13.3963 21.8229 11.6764 19.0505 9.99308C18.2677 9.51737 17.3219 9.84671 16.8979 10.6884C16.4739 11.5666 16.7674 12.6278 17.5175 13.1035C20.2573 14.7868 22.997 16.5067 25.6716 18.2266C25.9325 18.373 26.1935 18.4461 26.4544 18.4461C27.0089 18.4461 27.5307 18.1168 27.8242 17.5679C28.2482 16.7263 27.9873 15.6285 27.2372 15.1527H27.2698ZM88.1314 66.4566C88.5881 66.4566 89.0447 66.237 89.3382 65.7979C89.8927 65.0294 89.7948 63.9316 89.1425 63.3096C86.7289 61.0774 84.3153 58.8452 81.8364 56.6496C81.1515 56.0641 80.1404 56.1739 79.6186 56.9423C79.0641 57.7108 79.1946 58.8452 79.8796 59.4307C82.3258 61.6263 84.7393 63.8219 87.1529 66.0541C87.4464 66.3468 87.8052 66.4566 88.164 66.4566H88.1314ZM67.1592 384.745C66.4743 384.16 65.4632 384.306 64.9413 385.075C64.4195 385.843 64.5499 386.978 65.2349 387.563C67.7789 389.759 70.323 391.844 72.8018 393.857C73.0954 394.077 73.4215 394.186 73.7151 394.186C74.2043 394.186 74.6936 393.93 74.9872 393.455C75.509 392.65 75.3459 391.552 74.6283 390.966C72.1495 388.954 69.6381 386.868 67.1267 384.709L67.1592 384.745ZM72.4431 52.9902C72.7366 53.2464 73.0627 53.3562 73.3889 53.3562C73.8781 53.3562 74.3348 53.1 74.661 52.6609C75.1828 51.8924 75.0524 50.758 74.3674 50.1726C71.8886 48.0501 69.3445 45.9643 66.8005 43.8785C66.1155 43.293 65.1045 43.476 64.5826 44.281C64.0608 45.0861 64.2238 46.1839 64.9413 46.7694C67.4854 48.8186 69.9969 50.9044 72.4431 53.0268V52.9902ZM52.5473 371.608C51.8623 370.986 50.8838 371.059 50.2968 371.828C49.7423 372.596 49.8075 373.694 50.4924 374.353C52.9387 376.658 55.3849 378.89 57.7659 381.049C58.0594 381.306 58.4181 381.452 58.7443 381.452C59.2009 381.452 59.6576 381.232 59.9837 380.793C60.5382 380.025 60.4077 378.89 59.7228 378.305C57.3418 376.146 54.9282 373.95 52.482 371.645L52.5473 371.608ZM213.345 281.772C214.095 285.212 214.78 288.615 215.399 291.981C215.562 292.823 216.215 293.408 216.965 293.408C217.063 293.408 217.193 293.408 217.291 293.408C218.139 293.225 218.694 292.274 218.53 291.323C217.911 287.919 217.226 284.443 216.476 280.967C216.28 280.015 215.432 279.43 214.551 279.649C213.703 279.869 213.182 280.857 213.377 281.808L213.345 281.772ZM217.095 302.301C217.617 305.777 218.041 309.253 218.433 312.657C218.531 313.571 219.215 314.23 219.998 314.23C220.063 314.23 220.129 314.23 220.194 314.23C221.075 314.12 221.694 313.242 221.564 312.254C221.205 308.778 220.748 305.301 220.227 301.752C220.096 300.8 219.248 300.105 218.4 300.288C217.519 300.434 216.965 301.349 217.095 302.337V302.301ZM10.7008 4.9798C7.92841 3.36969 5.12347 1.75958 2.28587 0.18607C1.50309 -0.25305 0.557239 0.112884 0.165846 0.991124C-0.225548 1.86936 0.100617 2.93057 0.883403 3.36969C3.68839 4.94321 6.49336 6.51672 9.23311 8.12682C9.46143 8.2732 9.72236 8.30979 9.95067 8.30979C10.5051 8.30979 11.0596 7.94386 11.3531 7.35836C11.7445 6.48012 11.451 5.41892 10.6682 4.9432L10.7008 4.9798ZM208.322 261.572C209.267 264.939 210.148 268.305 210.996 271.635C211.192 272.404 211.844 272.916 212.529 272.916C212.66 272.916 212.823 272.916 212.953 272.843C213.801 272.587 214.29 271.599 214.062 270.647C213.214 267.281 212.333 263.914 211.355 260.511C211.094 259.56 210.213 259.047 209.365 259.34C208.517 259.633 208.061 260.621 208.322 261.572ZM219.346 323.049C219.574 326.562 219.737 330.075 219.835 333.478C219.835 334.43 220.553 335.198 221.433 335.198H221.466C222.347 335.198 223.031 334.356 222.999 333.368C222.901 329.892 222.738 326.342 222.51 322.756C222.444 321.768 221.662 321.036 220.814 321.11C219.933 321.183 219.281 322.024 219.346 323.012V323.049ZM205.354 251.655C205.582 252.387 206.202 252.863 206.854 252.863C207.017 252.863 207.213 252.863 207.376 252.753C208.191 252.424 208.648 251.399 208.354 250.484C207.343 247.191 206.234 243.861 205.093 240.531C204.767 239.616 203.853 239.14 203.038 239.506C202.222 239.872 201.798 240.897 202.125 241.812C203.266 245.105 204.31 248.399 205.354 251.655ZM172.966 176.2C173.259 176.749 173.781 177.042 174.303 177.042C174.597 177.042 174.89 176.968 175.151 176.785C175.901 176.273 176.13 175.175 175.673 174.334C174.042 171.37 172.346 168.369 170.617 165.405C170.128 164.563 169.15 164.344 168.432 164.893C167.682 165.442 167.486 166.539 167.976 167.344C169.704 170.308 171.368 173.236 172.998 176.2H172.966ZM191.002 212.976C191.263 213.598 191.851 213.964 192.438 213.964C192.666 213.964 192.894 213.891 193.123 213.781C193.905 213.342 194.232 212.281 193.873 211.403C192.503 208.256 191.1 205.109 189.665 201.925C189.274 201.047 188.295 200.718 187.513 201.157C186.73 201.596 186.436 202.694 186.828 203.572C188.263 206.719 189.665 209.829 191.002 212.94V212.976ZM159.202 430.487C156.234 430.487 153.168 430.231 150.037 429.792C149.189 429.682 148.373 430.377 148.275 431.329C148.178 432.317 148.797 433.195 149.645 433.305C152.907 433.744 156.103 434 159.202 434C160.082 434 160.8 433.195 160.8 432.244C160.8 431.256 160.115 430.45 159.234 430.45L159.202 430.487ZM106.331 413.178C103.657 411.605 100.917 409.922 98.1771 408.129C97.427 407.653 96.4485 407.946 96.0245 408.787C95.6005 409.629 95.8614 410.727 96.6115 411.202C99.4165 413.032 102.189 414.715 104.896 416.325C105.124 416.472 105.385 416.508 105.614 416.508C106.168 416.508 106.723 416.142 107.016 415.557C107.407 414.679 107.114 413.617 106.331 413.142V413.178ZM193.318 418.338C190.905 420.424 188.361 422.254 185.654 423.827C184.871 424.266 184.577 425.364 184.969 426.242C185.262 426.864 185.817 427.194 186.371 427.194C186.632 427.194 186.86 427.12 187.089 427.011C189.926 425.364 192.699 423.388 195.243 421.192C195.928 420.607 196.058 419.472 195.536 418.704C194.982 417.936 194.003 417.789 193.318 418.375V418.338ZM200.755 233.066C201.57 232.7 201.962 231.639 201.603 230.724C200.396 227.504 199.157 224.247 197.852 221.027C197.493 220.149 196.547 219.746 195.765 220.149C194.949 220.551 194.623 221.612 194.982 222.491C196.286 225.711 197.526 228.894 198.7 232.115C198.961 232.81 199.548 233.212 200.168 233.212C200.363 233.212 200.592 233.176 200.787 233.066H200.755ZM185.197 192.63C183.696 189.557 182.131 186.483 180.533 183.409C180.109 182.567 179.13 182.274 178.38 182.787C177.63 183.299 177.369 184.36 177.826 185.202C179.424 188.239 180.957 191.276 182.425 194.35C182.718 194.936 183.24 195.265 183.827 195.265C184.088 195.265 184.349 195.192 184.577 195.046C185.36 194.57 185.621 193.472 185.197 192.63ZM215.693 383.721C214.845 383.391 213.964 383.867 213.671 384.819C212.627 388.149 211.453 391.332 210.148 394.369C209.757 395.248 210.083 396.309 210.898 396.748C211.127 396.858 211.355 396.931 211.583 396.931C212.17 396.931 212.725 396.565 213.018 395.943C214.388 392.796 215.595 389.466 216.671 386.026C216.965 385.111 216.541 384.087 215.693 383.757V383.721ZM221.499 342.224C220.553 342.187 219.9 342.956 219.868 343.944C219.77 347.493 219.607 350.97 219.313 354.336C219.248 355.324 219.868 356.166 220.748 356.276C220.781 356.276 220.846 356.276 220.879 356.276C221.694 356.276 222.379 355.58 222.444 354.666C222.738 351.226 222.901 347.64 222.999 344.054C222.999 343.066 222.347 342.26 221.466 342.224H221.499ZM177.271 427.633C174.434 428.621 171.433 429.353 168.367 429.828C167.486 429.975 166.899 430.853 166.997 431.841C167.095 432.719 167.78 433.378 168.563 433.378C168.628 433.378 168.693 433.378 168.791 433.378C172.02 432.866 175.216 432.097 178.217 431.073C179.065 430.78 179.522 429.792 179.261 428.84C179 427.889 178.119 427.377 177.271 427.669V427.633ZM219.998 363.192C219.15 363.046 218.302 363.704 218.172 364.656C217.683 368.132 217.03 371.572 216.313 374.829C216.084 375.78 216.606 376.731 217.454 376.988C217.585 376.988 217.715 377.024 217.846 377.024C218.563 377.024 219.215 376.475 219.379 375.67C220.129 372.304 220.748 368.791 221.27 365.205C221.401 364.217 220.814 363.302 219.966 363.155L219.998 363.192ZM207.832 402.749C207.115 402.2 206.104 402.42 205.647 403.262C203.951 406.152 202.059 408.897 200.07 411.349C199.483 412.081 199.515 413.215 200.168 413.874C200.461 414.166 200.853 414.349 201.244 414.349C201.668 414.349 202.092 414.166 202.418 413.764C204.538 411.166 206.528 408.275 208.322 405.238C208.811 404.433 208.615 403.298 207.865 402.786L207.832 402.749ZM130.174 106.965C128.053 104.367 125.901 101.806 123.716 99.2442C123.096 98.5489 122.117 98.5124 121.465 99.2076C120.845 99.9029 120.813 101.001 121.432 101.733C123.618 104.257 125.738 106.819 127.825 109.381C128.151 109.746 128.575 109.966 128.999 109.966C129.391 109.966 129.782 109.82 130.076 109.49C130.728 108.832 130.761 107.697 130.174 106.965ZM123.292 421.778C120.487 420.534 117.616 419.18 114.746 417.716C113.963 417.313 113.017 417.716 112.626 418.594C112.267 419.472 112.626 420.534 113.409 420.936C116.344 422.436 119.28 423.827 122.15 425.108C122.346 425.181 122.541 425.218 122.737 425.218C123.357 425.218 123.977 424.779 124.205 424.083C124.531 423.168 124.107 422.144 123.292 421.778ZM115.985 94.7432C116.377 94.7432 116.801 94.5603 117.094 94.2309C117.714 93.5357 117.714 92.4013 117.094 91.706C114.877 89.2176 112.626 86.7659 110.343 84.3141C109.723 83.6189 108.712 83.6555 108.092 84.3873C107.473 85.0826 107.505 86.217 108.158 86.9123C110.441 89.3274 112.659 91.7792 114.877 94.2309C115.17 94.5603 115.594 94.7432 115.985 94.7432ZM159.985 147.913C159.463 147.108 158.484 146.925 157.767 147.511C157.049 148.096 156.886 149.194 157.408 149.999C159.234 152.853 161.061 155.708 162.79 158.562C163.083 159.074 163.605 159.33 164.094 159.33C164.42 159.33 164.714 159.221 165.007 159.001C165.725 158.452 165.921 157.318 165.399 156.513C163.638 153.622 161.811 150.731 159.952 147.877L159.985 147.913ZM153.103 142.278C153.429 142.278 153.788 142.168 154.049 141.912C154.733 141.327 154.897 140.192 154.342 139.424C152.45 136.643 150.526 133.861 148.536 131.08C147.982 130.312 147.003 130.202 146.319 130.788C145.634 131.41 145.536 132.508 146.058 133.276C148.014 136.02 149.939 138.802 151.798 141.546C152.124 142.022 152.581 142.241 153.07 142.241L153.103 142.278ZM141.002 427.962C138.099 427.23 135.099 426.315 132.065 425.254C131.217 424.961 130.337 425.474 130.076 426.425C129.815 427.377 130.271 428.365 131.119 428.657C134.218 429.755 137.316 430.67 140.317 431.438C140.448 431.438 140.545 431.475 140.676 431.475C141.393 431.475 142.046 430.926 142.209 430.085C142.405 429.133 141.85 428.182 141.002 427.962ZM136.468 114.833C135.881 114.101 134.87 114.028 134.218 114.687C133.566 115.345 133.5 116.443 134.087 117.212C136.142 119.846 138.197 122.518 140.187 125.189C140.513 125.628 140.937 125.811 141.393 125.811C141.752 125.811 142.111 125.665 142.405 125.408C143.089 124.786 143.155 123.652 142.6 122.883C140.611 120.176 138.556 117.504 136.468 114.833Z" fill="white"/>
</svg>
