<svg viewBox="0 0 323 448" fill="none" xmlns="http://www.w3.org/2000/svg">
<path d="M56.8891 426.974C56.6807 427.681 56.2116 428.074 55.7425 428.074C55.5601 428.074 55.3777 428.035 55.2213 427.917C52.902 426.305 50.6347 424.616 48.4196 422.847C47.7942 422.336 47.5596 421.196 47.8984 420.253C48.2372 419.31 48.9929 418.956 49.6184 419.467C51.7553 421.196 53.9965 422.886 56.2637 424.458C56.8891 424.891 57.1758 426.03 56.8891 426.974ZM52.4589 129.853C52.902 129.027 52.7977 127.809 52.2505 127.18C51.7032 126.512 50.8953 126.669 50.4784 127.495C48.8887 130.482 47.3512 133.468 45.8657 136.455C45.4488 137.281 45.553 138.499 46.1003 139.128C46.3348 139.403 46.5954 139.521 46.856 139.521C47.2469 139.521 47.6118 139.246 47.8724 138.774C49.3578 135.827 50.8953 132.84 52.4589 129.892V129.853ZM43.2076 413.847C41.0967 411.842 39.038 409.72 37.0835 407.559C36.5102 406.93 35.7284 407.126 35.3114 407.952C34.8944 408.816 35.0247 409.995 35.572 410.624C37.5786 412.864 39.6895 415.026 41.8525 417.07C42.061 417.266 42.2955 417.345 42.53 417.345C42.947 417.345 43.364 417.03 43.5985 416.441C43.9633 415.537 43.807 414.358 43.2076 413.808V413.847ZM34.5296 163.691C33.9563 163.102 33.1484 163.377 32.7836 164.242C31.3763 167.464 30.0212 170.648 28.7182 173.831C28.3534 174.735 28.5358 175.914 29.1352 176.465C29.3436 176.661 29.5782 176.74 29.8127 176.74C30.2297 176.74 30.6466 176.425 30.8812 175.836C32.1842 172.692 33.5133 169.508 34.8944 166.325C35.2853 165.46 35.129 164.242 34.5296 163.691ZM25.9558 392.938C25.4607 392.192 24.6528 392.152 24.1577 392.938C23.6625 393.685 23.6365 394.903 24.1577 395.65C25.9037 398.362 27.754 400.995 29.6824 403.51C29.917 403.825 30.2297 403.982 30.5163 403.982C30.8812 403.982 31.22 403.746 31.4806 403.314C31.9496 402.528 31.8715 401.31 31.3503 400.602C29.4739 398.165 27.6758 395.572 25.9819 392.938H25.9558ZM70.0755 92.9877C68.3556 95.8174 66.6877 98.6078 65.0199 101.398C64.5508 102.184 64.6029 103.403 65.1241 104.11C65.3587 104.424 65.6714 104.582 65.958 104.582C66.2968 104.582 66.6617 104.346 66.8962 103.953C68.538 101.162 70.2058 98.372 71.8997 95.5816C72.3688 94.7956 72.3428 93.5772 71.8216 92.8698C71.3004 92.1624 70.4925 92.2017 70.0234 92.9877H70.0755ZM84.4868 438.292C82.0371 437.506 79.6135 436.603 77.2421 435.659C76.5645 435.345 75.8609 436.013 75.6785 436.996C75.496 438.017 75.913 439.078 76.5906 439.314C78.9881 440.297 81.4638 441.162 83.9395 441.987C84.0177 441.987 84.1219 442.026 84.2001 442.026C84.7734 442.026 85.3207 441.397 85.451 440.533C85.6073 439.511 85.1643 438.489 84.4868 438.253V438.292ZM61.8666 109.77C61.3454 109.101 60.5376 109.18 60.0685 109.966C58.4267 112.874 56.811 115.783 55.2213 118.652C54.7783 119.477 54.8565 120.656 55.3777 121.364C55.6122 121.639 55.8989 121.796 56.1855 121.796C56.5504 121.796 56.9152 121.56 57.1758 121.088C58.7394 118.219 60.3551 115.35 61.9969 112.442C62.4399 111.656 62.3878 110.438 61.8666 109.73V109.77ZM92.852 60.5245C92.3569 59.7777 91.549 59.7384 91.0539 60.4852C89.2297 63.1577 87.4576 65.7909 85.6855 68.4241C85.1904 69.1709 85.1904 70.3892 85.6855 71.1359C85.9201 71.529 86.2588 71.6862 86.5716 71.6862C86.8843 71.6862 87.2231 71.4897 87.4576 71.1359C89.2036 68.5027 90.9757 65.8695 92.7999 63.2363C93.2951 62.4896 93.3211 61.2712 92.826 60.5245H92.852ZM70.1277 432.515C67.7301 431.336 65.3847 430.078 63.1175 428.781C62.466 428.388 61.7363 428.899 61.4757 429.882C61.2151 430.864 61.5539 431.965 62.2054 432.358C64.4987 433.694 66.8962 434.991 69.3459 436.17C69.4762 436.249 69.6065 436.249 69.7368 436.249C70.284 436.249 70.7792 435.738 70.9355 434.913C71.144 433.891 70.7792 432.83 70.1277 432.515ZM77.0596 87.3282C78.7535 84.6164 80.4735 81.9046 82.2456 79.1928C82.7407 78.4461 82.7147 77.2277 82.2456 76.481C81.7505 75.7342 80.9426 75.7735 80.4474 76.481C78.6754 79.2321 76.9293 81.9439 75.2354 84.6557C74.7663 85.4418 74.7663 86.6208 75.2876 87.3676C75.5221 87.7213 75.8348 87.8785 76.1475 87.8785C76.4863 87.8785 76.8251 87.682 77.0596 87.2889V87.3282ZM1.27694 303.723C1.98057 303.723 2.52783 302.898 2.55389 301.837C2.55389 298.143 2.68419 294.409 2.86661 290.675C2.91873 289.614 2.39753 288.71 1.6939 288.632C1.01634 288.592 0.390901 289.339 0.338781 290.4C0.1303 294.212 0.0260601 298.064 0 301.837C0 302.898 0.547261 303.763 1.25088 303.763L1.27694 303.723ZM3.54417 324.082C3.17933 320.466 2.91873 316.732 2.76237 312.999C2.71025 311.938 2.11087 311.151 1.40724 311.23C0.703622 311.309 0.182421 312.213 0.234541 313.274C0.390901 317.086 0.677562 320.938 1.0424 324.671C1.14664 325.615 1.66784 326.322 2.29329 326.322C2.34541 326.322 2.42359 326.322 2.47571 326.322C3.17933 326.165 3.64841 325.182 3.54417 324.16V324.082ZM2.26723 281.164C2.26723 281.164 2.39753 281.164 2.44965 281.164C3.07509 281.164 3.62235 280.457 3.70053 279.514C4.03931 275.898 4.45627 272.164 4.95141 268.47C5.08171 267.448 4.63869 266.426 3.96113 266.23C3.28357 266.033 2.60601 266.701 2.47571 267.723C1.98057 271.496 1.53754 275.269 1.19876 278.963C1.09452 280.025 1.58966 280.968 2.26723 281.125V281.164ZM5.08171 258.959C5.08171 258.959 5.29019 259.037 5.39443 259.037C5.96776 259.037 6.4629 258.448 6.61926 257.623C7.21864 254.085 7.92226 250.43 8.678 246.854C8.88649 245.832 8.52164 244.771 7.84408 244.456C7.16652 244.142 6.4629 244.692 6.25442 245.714C5.49868 249.369 4.79505 253.064 4.16961 256.679C3.98719 257.701 4.40415 258.762 5.08171 258.998V258.959ZM38.0477 157.796C38.4386 157.796 38.8556 157.521 39.0901 156.971C40.4974 153.945 41.9307 150.879 43.4161 147.774C43.833 146.91 43.7027 145.731 43.1294 145.102C42.5561 144.473 41.7743 144.669 41.3573 145.534C39.8459 148.639 38.4125 151.704 37.0053 154.809C36.6144 155.674 36.7447 156.853 37.318 157.482C37.5265 157.718 37.7871 157.835 38.0477 157.835V157.796ZM16.6524 375.685C16.2615 374.82 15.4797 374.584 14.8803 375.174C14.307 375.763 14.1506 376.943 14.5415 377.846C15.9488 380.991 17.4863 384.095 19.076 387.043C19.3366 387.515 19.7014 387.75 20.0663 387.75C20.3529 387.75 20.6396 387.593 20.8741 387.318C21.4214 386.65 21.4996 385.432 21.0565 384.646C19.4929 381.777 18.0075 378.75 16.6524 375.724V375.685ZM15.0627 216.356C15.2451 216.474 15.4015 216.513 15.5839 216.513C16.0791 216.513 16.5221 216.081 16.7306 215.413C17.7469 212.072 18.8154 208.692 19.936 205.273C20.2487 204.329 19.9881 203.19 19.3626 202.718C18.7372 202.246 17.9815 202.639 17.6687 203.583C16.5221 207.041 15.4276 210.46 14.4112 213.84C14.1246 214.784 14.4112 215.923 15.0367 216.356H15.0627ZM4.95141 335.047C4.79505 334.025 4.11749 333.357 3.43993 333.632C2.76237 333.868 2.34541 334.89 2.50177 335.912C3.07509 339.645 3.77871 343.379 4.56051 346.955C4.74293 347.741 5.23807 348.252 5.75928 348.252C5.88958 348.252 6.01988 348.252 6.15018 348.174C6.80168 347.859 7.16652 346.759 6.95804 345.776C6.2023 342.278 5.52474 338.663 4.95141 335.047ZM13.0822 223.234C12.4307 222.841 11.701 223.312 11.4404 224.255C10.4762 227.832 9.56405 231.369 8.70406 234.867C8.46952 235.849 8.8083 236.95 9.45981 237.304C9.59011 237.382 9.74647 237.421 9.90283 237.421C10.424 237.421 10.9192 236.95 11.1016 236.164C11.9355 232.705 12.8216 229.207 13.7858 225.67C14.0464 224.688 13.7337 223.587 13.1082 223.194L13.0822 223.234ZM9.56405 356.191C9.27739 355.209 8.5477 354.776 7.8962 355.209C7.2447 355.641 6.95804 356.741 7.2447 357.724C8.26104 361.222 9.38163 364.68 10.6065 368.06C10.841 368.689 11.258 369.043 11.727 369.043C11.9355 369.043 12.144 368.964 12.3264 368.807C12.9519 368.296 13.1603 367.156 12.8216 366.213C11.6489 362.951 10.5543 359.61 9.56405 356.231V356.191ZM26.6073 182.871C26.008 182.32 25.2262 182.635 24.8613 183.578C23.5844 186.919 22.3595 190.22 21.1608 193.482C20.822 194.425 21.0565 195.565 21.682 196.076C21.8644 196.233 22.0729 196.312 22.2814 196.312C22.7244 196.312 23.1674 195.958 23.4019 195.329C24.5746 192.067 25.7995 188.805 27.0504 185.504C27.4152 184.6 27.2067 183.421 26.5813 182.91L26.6073 182.871ZM270.842 380.047C268.653 381.895 266.464 383.663 264.275 385.432C263.65 385.943 263.415 387.082 263.754 388.026C263.989 388.654 264.432 389.047 264.875 389.047C265.083 389.047 265.292 388.969 265.474 388.812C267.663 387.043 269.878 385.235 272.093 383.388C272.693 382.877 272.927 381.698 272.588 380.794C272.25 379.89 271.468 379.536 270.868 380.047H270.842ZM244.157 400.445C241.864 402.017 239.596 403.55 237.329 405.043C236.678 405.476 236.391 406.576 236.678 407.559C236.886 408.266 237.355 408.698 237.85 408.698C238.007 408.698 238.189 408.659 238.345 408.541C240.639 407.048 242.932 405.476 245.225 403.903C245.851 403.471 246.137 402.331 245.851 401.388C245.564 400.445 244.808 400.013 244.183 400.445H244.157ZM257.63 390.619C255.389 392.349 253.148 393.999 250.932 395.611C250.307 396.082 250.046 397.222 250.333 398.165C250.542 398.834 251.011 399.227 251.48 399.227C251.662 399.227 251.845 399.148 252.027 399.03C254.268 397.379 256.509 395.729 258.777 393.999C259.402 393.528 259.637 392.388 259.324 391.445C259.011 390.502 258.255 390.109 257.63 390.619ZM202.33 424.773C199.933 425.912 197.535 426.974 195.164 427.995C194.486 428.271 194.095 429.332 194.304 430.354C194.46 431.179 194.981 431.729 195.529 431.729C195.633 431.729 195.763 431.729 195.868 431.65C198.265 430.629 200.663 429.528 203.086 428.388C203.764 428.074 204.129 427.013 203.92 425.991C203.712 424.969 203.008 424.419 202.33 424.733V424.773ZM230.449 409.445C228.13 410.899 225.811 412.275 223.491 413.611C222.84 414.004 222.501 415.104 222.762 416.087C222.944 416.834 223.439 417.305 223.934 417.305C224.091 417.305 224.247 417.266 224.403 417.187C226.723 415.851 229.068 414.436 231.387 412.982C232.039 412.589 232.352 411.449 232.065 410.506C231.804 409.524 231.049 409.052 230.423 409.484L230.449 409.445ZM216.507 417.58C214.136 418.877 211.79 420.096 209.445 421.314C208.793 421.668 208.428 422.729 208.637 423.751C208.819 424.537 209.315 425.048 209.836 425.048C209.966 425.048 210.096 425.048 210.253 424.93C212.624 423.712 214.996 422.493 217.367 421.196C218.019 420.843 218.357 419.742 218.123 418.76C217.888 417.777 217.159 417.266 216.507 417.62V417.58ZM283.794 368.728C281.631 370.694 279.494 372.58 277.357 374.466C276.758 374.977 276.549 376.156 276.888 377.06C277.123 377.689 277.54 378.004 277.983 378.004C278.191 378.004 278.426 377.925 278.608 377.729C280.771 375.842 282.934 373.916 285.097 371.951C285.697 371.401 285.879 370.222 285.54 369.318C285.175 368.414 284.394 368.139 283.794 368.65V368.728ZM308.864 344.086C306.805 346.248 304.746 348.37 302.688 350.492C302.114 351.082 301.958 352.261 302.349 353.165C302.584 353.715 303 353.99 303.391 353.99C303.626 353.99 303.887 353.872 304.095 353.676C306.154 351.554 308.239 349.431 310.297 347.23C310.871 346.641 311.001 345.423 310.61 344.558C310.219 343.693 309.411 343.497 308.838 344.086H308.864ZM322.754 331.235C322.337 330.409 321.529 330.213 320.982 330.842C318.975 333.121 316.969 335.322 314.962 337.523C314.389 338.152 314.258 339.331 314.675 340.195C314.936 340.706 315.301 340.981 315.692 340.981C315.952 340.981 316.213 340.864 316.447 340.628C318.454 338.427 320.487 336.187 322.493 333.907C323.041 333.278 323.171 332.06 322.754 331.235ZM296.459 356.741C294.349 358.824 292.264 360.829 290.153 362.833C289.553 363.383 289.371 364.562 289.762 365.466C289.996 366.056 290.413 366.37 290.83 366.37C291.065 366.37 291.299 366.292 291.508 366.095C293.619 364.091 295.73 362.047 297.841 359.964C298.44 359.375 298.596 358.196 298.205 357.331C297.815 356.466 297.033 356.191 296.459 356.781V356.741ZM114.065 443.913C111.563 443.755 109.087 443.52 106.612 443.205C105.882 443.048 105.309 443.913 105.257 444.934C105.205 445.996 105.726 446.9 106.403 446.978C108.879 447.293 111.407 447.528 113.935 447.686H113.987C114.664 447.686 115.212 446.9 115.264 445.878C115.29 444.817 114.742 443.913 114.065 443.873V443.913ZM126.209 17.8428C126.756 17.1747 126.808 15.9563 126.365 15.131C125.922 14.345 125.114 14.2271 124.567 14.8952C122.639 17.3712 120.736 19.8079 118.86 22.2446C118.339 22.9521 118.261 24.1311 118.73 24.9564C118.99 25.3888 119.329 25.6246 119.694 25.6246C119.981 25.6246 120.293 25.4674 120.528 25.1529C122.404 22.7162 124.307 20.2795 126.235 17.8035L126.209 17.8428ZM113.179 29.7119C111.277 32.2272 109.4 34.7426 107.576 37.2579C107.055 37.9653 107.003 39.1837 107.472 39.9697C107.732 40.402 108.071 40.5985 108.41 40.5985C108.723 40.5985 109.009 40.4413 109.27 40.1269C111.094 37.6116 112.97 35.1356 114.873 32.6203C115.394 31.9128 115.446 30.7338 114.977 29.9084C114.508 29.1224 113.7 29.0438 113.179 29.7512V29.7119ZM187.945 430.943C185.522 431.886 183.098 432.79 180.701 433.655C180.023 433.891 179.606 434.913 179.762 435.934C179.893 436.799 180.414 437.428 180.987 437.428C181.091 437.428 181.17 437.428 181.274 437.389C183.697 436.524 186.147 435.62 188.597 434.677C189.274 434.402 189.691 433.38 189.509 432.358C189.326 431.336 188.623 430.707 187.971 430.982L187.945 430.943ZM128.971 444.07C127.043 444.148 125.14 444.188 123.264 444.188H121.518C120.867 444.031 120.241 445.013 120.241 446.074C120.241 447.135 120.788 448 121.492 448H123.264C125.167 448 127.095 448 129.049 447.882C129.753 447.882 130.3 446.978 130.274 445.917C130.274 444.856 129.701 444.07 128.971 444.07ZM99.2107 442.026C96.7089 441.555 94.2593 441.004 91.8357 440.415C91.1581 440.258 90.4806 440.926 90.3763 441.987C90.246 443.048 90.7151 444.031 91.4187 444.188C93.8684 444.817 96.3701 445.367 98.898 445.838C98.9501 445.838 99.0022 445.838 99.0543 445.838C99.6798 445.838 100.227 445.131 100.305 444.148C100.383 443.087 99.8883 442.144 99.2107 442.026ZM102.025 44.8824C100.175 47.4763 98.3246 50.0702 96.5265 52.6248C96.0314 53.3716 96.0053 54.5506 96.4744 55.3367C96.735 55.7297 97.0477 55.9262 97.3865 55.9262C97.6992 55.9262 98.0119 55.769 98.2465 55.4153C100.045 52.8606 101.869 50.2667 103.719 47.7121C104.24 47.0047 104.266 45.7863 103.797 45.0003C103.328 44.2143 102.52 44.175 101.999 44.8824H102.025ZM158.706 440.022C156.23 440.572 153.754 441.083 151.305 441.555C150.601 441.672 150.106 442.616 150.21 443.677C150.288 444.659 150.836 445.367 151.461 445.367C151.513 445.367 151.565 445.367 151.617 445.367C154.093 444.934 156.569 444.424 159.097 443.834C159.8 443.677 160.269 442.694 160.165 441.672C160.061 440.611 159.436 439.904 158.732 440.061L158.706 440.022ZM173.404 436.052C170.954 436.799 168.504 437.546 166.055 438.175C165.377 438.371 164.908 439.354 165.038 440.375C165.143 441.319 165.69 441.948 166.289 441.948C166.368 441.948 166.446 441.948 166.524 441.948C168.974 441.279 171.449 440.572 173.925 439.786C174.603 439.589 175.046 438.568 174.915 437.506C174.785 436.485 174.107 435.816 173.43 436.013L173.404 436.052ZM137.936 0.707287C137.493 -0.118048 136.685 -0.235967 136.164 0.432162C134.209 2.82957 132.255 5.22698 130.352 7.62438C129.805 8.29251 129.727 9.51086 130.196 10.3362C130.457 10.8078 130.822 11.0436 131.186 11.0436C131.473 11.0436 131.76 10.8864 131.994 10.6113C133.897 8.2139 135.825 5.8558 137.78 3.4584C138.327 2.79027 138.405 1.57191 137.962 0.785878L137.936 0.707287ZM143.852 442.734C141.35 443.087 138.874 443.362 136.398 443.559C135.695 443.638 135.174 444.541 135.2 445.563C135.252 446.585 135.799 447.371 136.451 447.371H136.529C139.004 447.135 141.532 446.86 144.06 446.507C144.764 446.428 145.259 445.485 145.207 444.424C145.155 443.362 144.529 442.655 143.826 442.694L143.852 442.734Z" fill="white"/>
</svg>
