<svg viewBox="0 0 24 35" fill="none" xmlns="http://www.w3.org/2000/svg">
<path d="M23.1256 12.1411C23.1256 5.84922 17.9519 0.74707 11.5718 0.74707C5.19173 0.74707 0.0180508 5.84922 0.0180508 12.1411C0.0180508 12.1411 -0.503969 16.0993 4.06651 22.5284C6.11974 25.4227 11.5718 34.014 11.5718 34.014C11.5718 34.014 17.0239 25.4227 19.0772 22.5284C23.6476 16.0993 23.1256 12.1411 23.1256 12.1411ZM11.5718 20.6523C6.92016 20.6523 3.15012 16.9344 3.15012 12.347C3.15012 7.75966 6.92016 4.04173 11.5718 4.04173C16.2235 4.04173 19.9936 7.75966 19.9936 12.347C19.9936 16.9344 16.2235 20.6523 11.5718 20.6523Z" fill="white"/>
</svg>
